<svg width="32" height="32" viewBox="0 0 32 32" fill="none" xmlns="http://www.w3.org/2000/svg">
<path d="M29.1301 11.4274H3.27759L4.71009 6.86743H27.2226L29.1301 11.4274Z" fill="#37474F"/>
<path d="M30.7175 13.8301L28.02 7.25012C27.9482 7.04763 27.8154 6.87236 27.6399 6.74836C27.4644 6.62437 27.2549 6.55774 27.04 6.55762H4.96503C4.52503 6.55762 4.13253 6.83512 3.98503 7.25012L1.28253 13.8301C1.25871 13.9004 1.25198 13.9754 1.26289 14.0489C1.27381 14.1223 1.30206 14.1921 1.34531 14.2524C1.38856 14.3128 1.44555 14.362 1.51159 14.3959C1.57762 14.4298 1.65078 14.4476 1.72503 14.4476H30.275C30.3493 14.4476 30.4224 14.4298 30.4885 14.3959C30.5545 14.362 30.6115 14.3128 30.6548 14.2524C30.698 14.1921 30.7263 14.1223 30.7372 14.0489C30.7481 13.9754 30.7414 13.9004 30.7175 13.8301V13.8301ZM28.87 13.4526H3.13003C2.80253 13.4526 2.57253 13.1301 2.67753 12.8201L4.81253 7.89262C4.86374 7.74996 4.95773 7.62658 5.08167 7.53933C5.20561 7.45208 5.35346 7.40521 5.50503 7.40512H26.5C26.81 7.40512 27.0875 7.60012 27.1925 7.89262L29.3275 12.8201C29.3512 12.8925 29.3574 12.9694 29.3457 13.0446C29.3339 13.1198 29.3045 13.1912 29.2599 13.2529C29.2153 13.3146 29.1567 13.3648 29.0889 13.3995C29.0212 13.4343 28.9462 13.4524 28.87 13.4526Z" fill="#82AEC0"/>
<path d="M1.25 14.0276V30.3826C1.25 30.7251 1.525 31.0001 1.865 31.0001H30.1325C30.4725 31.0001 30.75 30.7251 30.75 30.3826V13.9751L1.25 14.0276Z" fill="#37474F"/>
<path d="M26.6824 14.0249V6.05241C26.6824 5.82241 26.4949 5.63491 26.2649 5.63491V4.05241C26.2649 3.88201 26.1972 3.71859 26.0767 3.5981C25.9562 3.4776 25.7928 3.40991 25.6224 3.40991H21.2874C21.117 3.40991 20.9536 3.4776 20.8331 3.5981C20.7126 3.71859 20.6449 3.88201 20.6449 4.05241V4.49241C20.6449 5.12241 20.1324 5.63491 19.5024 5.63491H5.92988C5.59238 5.63491 5.31738 5.90991 5.31738 6.24741V14.0224H26.6824V14.0249Z" fill="#F3AB47"/>
<path d="M26.2674 5.6376V4.0551C26.2674 3.8847 26.1997 3.72127 26.0792 3.60078C25.9587 3.48029 25.7953 3.4126 25.6249 3.4126H21.2874C21.117 3.4126 20.9536 3.48029 20.8331 3.60078C20.7126 3.72127 20.6449 3.8847 20.6449 4.0551V4.4951C20.6449 4.9576 20.3274 5.4776 19.6399 5.6376H26.2674V5.6376Z" fill="#7CB342"/>
<path opacity="0.75" d="M5.31738 6.86743H26.6849V8.16993H5.31738V6.86743Z" fill="#DE7340"/>
<path d="M28.0899 13.9874V8.21494C28.0899 8.03062 28.0167 7.85384 27.8864 7.7235C27.756 7.59316 27.5792 7.51994 27.3949 7.51994H20.4724C20.3027 7.51994 20.1346 7.48651 19.9778 7.42155C19.821 7.3566 19.6785 7.2614 19.5585 7.14138C19.4385 7.02136 19.3433 6.87887 19.2783 6.72206C19.2133 6.56525 19.1799 6.39717 19.1799 6.22744V5.72994C19.1799 5.32744 18.8549 5.00244 18.4524 5.00244H13.5474C13.1449 5.00244 12.8199 5.32744 12.8199 5.72994V6.22744C12.8199 6.39717 12.7865 6.56525 12.7215 6.72206C12.6566 6.87887 12.5614 7.02136 12.4413 7.14138C12.3213 7.2614 12.1788 7.3566 12.022 7.42155C11.8652 7.48651 11.6971 7.51994 11.5274 7.51994H4.60491C4.42059 7.51994 4.24381 7.59316 4.11347 7.7235C3.98313 7.85384 3.90991 8.03062 3.90991 8.21494V13.9874H28.0899Z" fill="#FFCA28"/>
<path d="M19.1801 6.22744V5.72994C19.1801 5.32744 18.8551 5.00244 18.4526 5.00244H13.5476C13.1451 5.00244 12.8201 5.32744 12.8201 5.72994V6.22744C12.8201 6.57023 12.6839 6.89899 12.4415 7.14138C12.1991 7.38377 11.8704 7.51994 11.5276 7.51994H20.4751C19.7601 7.51994 19.1801 6.93994 19.1801 6.22744V6.22744Z" fill="#0288D1"/>
<path d="M3.16992 9.52246H28.0899V10.825H3.16992V9.52246Z" fill="#F3AB47"/>
<path d="M29.3501 13.9876V10.9501C29.3501 10.7465 29.2692 10.5513 29.1253 10.4074C28.9814 10.2634 28.7861 10.1826 28.5826 10.1826H11.6226C10.8351 10.1826 10.1951 9.54259 10.1951 8.75509V8.20509C10.1951 7.76259 9.83509 7.40259 9.39259 7.40259H3.97509C3.53259 7.40259 3.17259 7.76259 3.17259 8.20509V10.1826C2.88509 10.1826 2.65259 10.4151 2.65259 10.7026V13.9851H29.3501V13.9876Z" fill="#FFE36C"/>
<path d="M10.1951 8.75509V8.20509C10.1951 7.76259 9.83511 7.40259 9.39261 7.40259H3.97511C3.53261 7.40259 3.17261 7.76259 3.17261 8.20509V10.1826H11.6251C11.4374 10.1829 11.2515 10.1462 11.0781 10.0746C10.9046 10.0031 10.7469 9.89796 10.6141 9.76537C10.4813 9.63278 10.3759 9.4753 10.304 9.30195C10.2321 9.12859 10.1951 8.94276 10.1951 8.75509V8.75509Z" fill="#F44336"/>
<path d="M29.35 12.8176C29.4125 13.3901 29.1975 13.4501 28.87 13.4501H3.13003C2.80253 13.4501 2.57753 13.4751 2.65003 12.8726L1.66253 12.9051L1.28253 13.8301C1.25871 13.9004 1.25198 13.9754 1.26289 14.0488C1.27381 14.1222 1.30206 14.192 1.34531 14.2524C1.38856 14.3127 1.44555 14.3619 1.51159 14.3959C1.57762 14.4298 1.65078 14.4475 1.72503 14.4476H30.275C30.3493 14.4475 30.4224 14.4298 30.4885 14.3959C30.5545 14.3619 30.6115 14.3127 30.6548 14.2524C30.698 14.192 30.7263 14.1222 30.7372 14.0488C30.7481 13.9754 30.7414 13.9004 30.7175 13.8301L30.28 12.7576L29.35 12.8176V12.8176Z" fill="#82AEC0"/>
<path d="M11.6226 20.6851H19.9676V25.0351H11.6226V20.6851Z" fill="#FAFAFA"/>
<path d="M19.2525 21.595C19.2525 21.595 18.915 22.2725 18.9075 23.1625C18.9 24.18 19.3075 25.075 19.3075 25.075L12.275 24.9975C12.275 24.9975 12.7175 24.3125 12.7425 23.335C12.7675 22.41 12.385 21.595 12.385 21.595H19.2525ZM19.6875 20.595H11.9925C11.555 20.595 11.2 20.95 11.2 21.3875V25.2825C11.2 25.72 11.555 26.075 11.9925 26.075H19.6875C20.125 26.075 20.48 25.72 20.48 25.2825V21.3875C20.4795 21.1774 20.3958 20.9761 20.2473 20.8276C20.0988 20.6791 19.8975 20.5954 19.6875 20.595Z" fill="#263238"/>
<path d="M19.4775 21.1375C19.4775 21.1375 19.0125 21.8649 19.0125 22.7549C19.0125 23.6449 19.4775 24.615 19.4775 24.615H12.2C12.2 24.615 12.6475 23.7125 12.6475 22.875C12.6475 22.0375 12.2 21.135 12.2 21.135H19.4775V21.1375ZM19.6875 20.1375H11.9925C11.555 20.1375 11.2 20.4925 11.2 20.93V24.825C11.2 25.2625 11.555 25.6175 11.9925 25.6175H19.6875C20.125 25.6175 20.48 25.2625 20.48 24.825V20.93C20.4795 20.7199 20.3958 20.5186 20.2473 20.3701C20.0988 20.2216 19.8975 20.1379 19.6875 20.1375Z" fill="#9E9E9E"/>
<path d="M11.9924 20.4824H15.0374" stroke="#C9E3E6" stroke-width="2" stroke-miterlimit="10" stroke-linecap="round"/>
</svg>
