<svg width="28" height="28" viewBox="0 0 28 28" fill="none" xmlns="http://www.w3.org/2000/svg">
<path d="M2.78704 5.50926V24.8889H22.1019V27.6111H2.78704C2.00926 27.6111 1.35031 27.3411 0.810185 26.8009C0.270062 26.2608 0 25.6235 0 24.8889V5.50926H2.78704ZM24.8889 0C25.6667 0 26.3256 0.270062 26.8657 0.810185C27.4059 1.35031 27.6759 1.98765 27.6759 2.72222V19.3148C27.6759 20.0926 27.4059 20.7515 26.8657 21.2917C26.3256 21.8318 25.6667 22.1019 24.8889 22.1019H8.2963C7.51852 22.1019 6.85957 21.8318 6.31944 21.2917C5.77932 20.7515 5.50926 20.0926 5.50926 19.3148V2.72222C5.50926 1.98765 5.77932 1.35031 6.31944 0.810185C6.85957 0.270062 7.51852 0 8.2963 0H24.8889ZM23.5278 12.4444V9.65741H9.65741V12.4444H23.5278ZM17.9537 17.9537V15.1667H9.65741V17.9537H17.9537ZM23.5278 6.87037V4.14815H9.65741V6.87037H23.5278Z" fill="#13A248"/>
</svg>
