<svg width="32" height="32" viewBox="0 0 32 32" fill="none" xmlns="http://www.w3.org/2000/svg">
<path d="M5.90201 27.201L3.65601 2H28.344L26.095 27.197L15.985 30L5.90201 27.201Z" fill="#1572B6"/>
<path d="M16 27.858L24.17 25.593L26.092 4.06104H16V27.858Z" fill="#33A9DC"/>
<path d="M16 13.1911H20.09L20.372 10.0261H16V6.93506H23.75L23.676 7.76406L22.917 16.2821H16V13.1911Z" fill="white"/>
<path d="M16.019 21.2179L16.005 21.2219L12.563 20.2919L12.343 17.8269H9.23999L9.67299 22.6799L16.004 24.4379L16.019 24.4339V21.2179Z" fill="#EBEBEB"/>
<path d="M19.8271 16.1509L19.4551 20.2899L16.0081 21.2199V24.4359L22.3441 22.6799L22.3911 22.1579L22.9281 16.1509H19.8271Z" fill="white"/>
<path d="M16.0109 6.93506V10.0261H8.54494L8.48294 9.33106L8.34194 7.76406L8.26794 6.93506H16.0109Z" fill="#EBEBEB"/>
<path d="M16 13.1909V16.2819H12.601L12.539 15.5869L12.399 14.0199L12.325 13.1909H16Z" fill="#EBEBEB"/>
</svg>
