<svg width="32" height="32" viewBox="0 0 32 32" fill="none" xmlns="http://www.w3.org/2000/svg">
<path d="M2 2H30V30H2V2Z" fill="#F5DE19"/>
<path d="M20.8091 23.8749C21.0476 24.3595 21.4183 24.7668 21.8783 25.0499C22.3383 25.333 22.869 25.4803 23.4091 25.4749C24.4991 25.4749 25.1961 24.9299 25.1961 24.1749C25.1961 23.2749 24.4801 22.9529 23.2801 22.4279L22.6221 22.1459C20.7221 21.3369 19.4621 20.3239 19.4621 18.1819C19.4621 16.2089 20.9621 14.7059 23.3151 14.7059C24.0768 14.6509 24.8378 14.8214 25.5033 15.1961C26.1687 15.5708 26.7091 16.1331 27.0571 16.8129L25.0001 18.1279C24.8661 17.7908 24.6328 17.5024 24.3312 17.301C24.0295 17.0995 23.6738 16.9945 23.3111 16.9999C23.1528 16.9841 22.993 17.0014 22.8418 17.0507C22.6907 17.1 22.5514 17.1803 22.433 17.2864C22.3145 17.3925 22.2195 17.5222 22.1539 17.667C22.0883 17.8119 22.0536 17.9689 22.0521 18.1279C22.0521 18.9169 22.5411 19.2369 23.6701 19.7279L24.3281 20.0099C26.5641 20.9689 27.8281 21.9459 27.8281 24.1429C27.8281 26.5119 25.9671 27.8099 23.4681 27.8099C22.4944 27.8719 21.5235 27.6509 20.6727 27.1734C19.8218 26.6959 19.1274 25.9824 18.6731 25.1189L20.8091 23.8749ZM11.5141 24.1029C11.9271 24.8359 12.3031 25.4559 13.2071 25.4559C14.0711 25.4559 14.6171 25.1179 14.6171 23.8029V14.8559H17.2481V23.8379C17.2481 26.5619 15.6481 27.8019 13.3191 27.8019C12.4958 27.8469 11.6782 27.6417 10.9738 27.2134C10.2693 26.785 9.71093 26.1535 9.37207 25.4019L11.5141 24.1029Z" fill="black"/>
</svg>
