<svg width="32" height="32" viewBox="0 0 32 32" fill="none" xmlns="http://www.w3.org/2000/svg">
<path d="M16.0001 29.3334C23.3641 29.3334 29.3334 23.3641 29.3334 16.0001C29.3334 8.63608 23.3641 2.66675 16.0001 2.66675C8.63609 2.66675 2.66676 8.63608 2.66676 16.0001C2.66376 18.6375 3.44534 21.2162 4.91209 23.4081C5.07476 23.6501 4.77009 25.1814 4.00009 28.0001C6.81942 27.2301 8.35009 26.9254 8.59209 27.0881C10.784 28.5548 13.3627 29.3364 16.0001 29.3334V29.3334Z" fill="black" stroke="black" stroke-width="4" stroke-linejoin="round"/>
<path d="M9.73608 18.6669H20.9227M11.0694 13.2135H22.2561H11.0694ZM14.5641 10.4922L12.6221 21.5082L14.5641 10.4922ZM19.2307 10.4922L17.2887 21.5082L19.2307 10.4922Z" stroke="white" stroke-width="4" stroke-linecap="round" stroke-linejoin="round"/>
</svg>
