<svg width="28" height="28" viewBox="0 0 28 28" fill="none" xmlns="http://www.w3.org/2000/svg">
<path d="M28 14C28 17.713 26.525 21.274 23.8995 23.8995C21.274 26.525 17.713 28 14 28C10.287 28 6.72601 26.525 4.10051 23.8995C1.475 21.274 0 17.713 0 14C0 10.287 1.475 6.72601 4.10051 4.10051C6.72601 1.475 10.287 0 14 0C17.713 0 21.274 1.475 23.8995 4.10051C26.525 6.72601 28 10.287 28 14V14ZM9.618 10.5577H11.0618C11.3033 10.5577 11.4957 10.36 11.5272 10.1202C11.6847 8.97225 12.4722 8.13575 13.8757 8.13575C15.0762 8.13575 16.1753 8.736 16.1753 10.1797C16.1753 11.291 15.5207 11.802 14.4865 12.579C13.3087 13.4348 12.376 14.434 12.4425 16.0563L12.4477 16.436C12.4496 16.5508 12.4965 16.6603 12.5783 16.7408C12.6602 16.8214 12.7704 16.8665 12.8852 16.8665H14.3045C14.4205 16.8665 14.5318 16.8204 14.6139 16.7384C14.6959 16.6563 14.742 16.545 14.742 16.429V16.2452C14.742 14.9887 15.2198 14.623 16.5095 13.6447C17.5753 12.8345 18.6865 11.935 18.6865 10.0468C18.6865 7.4025 16.4535 6.125 14.0088 6.125C11.7915 6.125 9.3625 7.1575 9.19625 10.1255C9.19385 10.182 9.20304 10.2384 9.22326 10.2913C9.24347 10.3441 9.27427 10.3922 9.31377 10.4327C9.35328 10.4732 9.40064 10.5052 9.45296 10.5267C9.50528 10.5482 9.56144 10.5588 9.618 10.5577V10.5577ZM13.6868 21.833C14.7543 21.833 15.4875 21.1435 15.4875 20.2107C15.4875 19.2447 14.7525 18.5658 13.6868 18.5658C12.6648 18.5658 11.921 19.2447 11.921 20.2107C11.921 21.1435 12.6648 21.833 13.6885 21.833H13.6868Z" fill="black"/>
</svg>
